<?xml version="1.0" encoding="utf-8"?>
<!-- Generator: Adobe Illustrator 19.0.0, SVG Export Plug-In . SVG Version: 6.00 Build 0)  -->
<svg version="1.1" baseProfile="tiny"
	 id="svg2" xmlns:dc="http://purl.org/dc/elements/1.1/" xmlns:cc="http://creativecommons.org/ns#" xmlns:svg="http://www.w3.org/2000/svg" xmlns:rdf="http://www.w3.org/1999/02/22-rdf-syntax-ns#"
	 xmlns="http://www.w3.org/2000/svg" xmlns:xlink="http://www.w3.org/1999/xlink" x="0px" y="0px" viewBox="-172 295.9 250 250"
	 xml:space="preserve">
<g id="layer1">
	<path id="path74" fill="#FFFFFF" d="M-172,295.9v250H78v-250H-172z"/>
</g>
<g id="layer2">
	<image width="37" height="26" id="path90" xlink:href="98F106C2.png"  transform="matrix(1 0 0 1 -146 413.89)">
	</image>
</g>
<g id="layer3">
	<path id="path4183" d="M-105.9,440.7H-93c11.3,0,20.5-8.9,20.5-19.9c0-11-9.2-19.9-20.5-19.9h-12.9V440.7L-105.9,440.7z M-93,435.8
		h-7.9v-30.1h7.9c8.6,0,15.5,6.8,15.5,15S-84.4,435.8-93,435.8z"/>
	<path id="path4186" d="M-65.5,410.9c1.7,0,3.1-1.5,3.1-3.2s-1.4-3.1-3.1-3.1c-1.8,0-3.2,1.4-3.2,3.1
		C-68.7,409.4-67.3,410.9-65.5,410.9z M-67.9,440.7h4.8V415h-4.8V440.7z"/>
	<path id="path4189" d="M-57,440.7h24.7v-4.9h-19.6V420h17.6v-5h-17.6v-9.3h20.1v-4.8H-57V440.7L-57,440.7z"/>
	<path id="path4192" d="M7.5,440.7v-39.8H2.2l-12.4,17l-12.4-17h-5.3v39.8h5v-31.8l12.6,17.3l12.7-17.3v31.8H7.5L7.5,440.7z"/>
</g>
<g>
	<image width="19" height="20" xlink:href="98F106C6.png"  transform="matrix(1 0 0 1 -44 448.89)">
	</image>
	<image width="13" height="13" xlink:href="98F106C1.png"  transform="matrix(1 0 0 1 -25 455.89)">
	</image>
	<image width="11" height="20" xlink:href="98F106C3.png"  transform="matrix(1 0 0 1 -12 448.89)">
	</image>
	<image width="13" height="18" xlink:href="98F106C0.png"  transform="matrix(1 0 0 1 -3 450.89)">
	</image>
</g>
</svg>
